/* XPM */
static const char *xpmConnected16x16[] = {
/* width height num_colors chars_per_pixel */
"    18    18       20            1",
/* colors */
". c #000000",
"# c #303030",
"a c #585858",
"b c #808080",
"c c #a0a0a0",
"d c #c3c3c3",
"e c #cccccc",
"f c #cdcdcd",
"g c #d2d2d2",
"h c #d4d4d4",
"i c #d9d9d9",
"j c #dadada",
"k c #dbdbdb",
"l c #dcdcdc",
"m c #f2f2f2",
"n c #f3f3f3",
"o c #f7f7f7",
"p c #f9f9f9",
"q c #fefefe",
"r c none",
/* pixels */
"rrrrrrrrrrrrr.rcpq",
"rrrrrr...pqr.rc.lp",
"rrrrr.rrr.n.rc.fjp",
"rrrr.rlllr.rc.einq",
"rrr...clllr#.einqr",
"rr.rd..clllr#gmqrr",
"r.rlld.#clllr.mqrr",
".bdllld..clld.jprr",
".abdllld.#cdb.horr",
".aabdllld..ba.horr",
"p.adbdlldc.a.ejprr",
"qn.rcbdlcb..einqrr",
"r.rcbabcba.einqrrr",
".rc..abba.einqrrrr",
"rc.eg.aa.einqrrrrr",
"c.eimm..einqrrrrrr",
"plknqqnkknqrrrrrrr",
"qppqrrqppqrrrrrrrr"
};
