/* XPM */
static const char *xpmDisconnected16x16[] = {
/* width height num_colors chars_per_pixel */
"    16    18       22            1",
/* colors */
". c #000000",
"# c #404000",
"a c #585858",
"b c #808080",
"c c #a0a0a0",
"d c #c0c000",
"e c #c3c3c3",
"f c #cccccc",
"g c #cecece",
"h c #d2d2d2",
"i c #d4d4d4",
"j c #d9d9d9",
"k c #dadada",
"l c #dbdbdb",
"m c #dcdcdc",
"n c #f2f2f2",
"o c #f3f3f3",
"p c #f7f7f7",
"q c #f9f9f9",
"r c #fefefe",
"s c #ffff00",
"t c none",
/* pixels */
"tttttttttttttttt",
"tttttttttttttttt",
"tttttttttttttttt",
"ttttttttsdqrtttt",
"ttt..qrsd#mqtttt",
"tt.te.sd#glqtttt",
"t.tmme.#gjosdqrt",
".bemmme.hnsd#mqt",
".abemmme.sd#glqt",
".aabemmme.#gjort",
"q.aebemmec.hnrtt",
"ro.tcbemcb.ipttt",
"t.tcbabcba.ipttt",
".tc..abba.fkqttt",
"tc.fh.aa.fjorttt",
"c.fjnn..fjortttt",
"qmlorrollorttttt",
"rqqrttrqqrtttttt"
};
