/* XPM */
static const char *xpmError16x16[]={
"16 16 65 2",
"Qt c None",
".# c #000000",
".p c #1e0000",
".q c #1f0000",
".w c #4c0000",
".F c #7f0000",
".N c #b40000",
".Q c #b80000",
".P c #ba0000",
".4 c #bb0000",
".8 c #bc0000",
".Z c #bf0000",
".9 c #c00000",
".I c #c30000",
".z c #c90000",
".e c #ca0808",
".j c #cb0202",
".t c #cd0000",
".f c #cd0202",
".5 c #ce0000",
".s c #d00101",
".7 c #d10101",
".A c #d60000",
".y c #d60101",
".k c #d70303",
".1 c #d80404",
".6 c #da0404",
"#. c #db0000",
".r c #dc0202",
".2 c #dd0303",
".X c #df0808",
".U c #e00000",
".d c #e11717",
".0 c #e30404",
".H c #e50000",
".l c #e50101",
".W c #e60b0b",
".S c #e80f0f",
".V c #ea0000",
".R c #ea1212",
".O c #eb0000",
".Y c #ec0202",
".J c #ec1313",
".x c #ef0000",
".3 c #ef0101",
".K c #ef1414",
".B c #f21313",
".T c #f30303",
".L c #f50404",
".D c #f70909",
".v c #f80505",
".g c #f80c0c",
".u c #f81111",
".c c #f82828",
".C c #f91a1a",
".G c #fb0000",
".E c #fc0000",
".o c #fc1616",
".M c #fe0000",
".m c #fe1b1b",
".h c #ff1e1e",
".n c #ff2020",
".a c #ff2727",
".i c #ff2929",
".b c #ff3636",
"QtQtQtQtQtQtQtQtQtQtQtQtQtQtQtQt",
"QtQtQtQtQt.#.#.#.#.#.#QtQtQtQtQt",
"QtQtQt.#.#.a.b.c.d.e.f.#.#QtQtQt",
"QtQt.#.g.h.i.#.#.#.#.j.k.l.#QtQt",
"QtQt.#.m.n.o.p.#.#.q.r.s.t.#QtQt",
"Qt.#.u.h.o.v.w.#.#.w.x.y.z.A.#Qt",
"Qt.#.B.C.D.E.F.#.#.F.G.H.I.I.#Qt",
"Qt.#.J.K.L.M.N.#.#.N.M.O.P.Q.#Qt",
"Qt.#.R.S.T.M.U.#.#.U.M.V.Q.Q.#Qt",
"Qt.#.W.X.Y.G.M.#.#.M.G.U.P.Z.#Qt",
"Qt.#.0.1.2.3.G.M.M.G.V.z.4.5.#Qt",
"QtQt.#.6.7.y.H.#.#.U.z.8.9.#QtQt",
"QtQt.#.l.t.z.I.#.#.P.4.9#..#QtQt",
"QtQtQt.#.#.A.I.Q.Q.Z.5.#.#QtQtQt",
"QtQtQtQtQt.#.#.#.#.#.#QtQtQtQtQt",
"QtQtQtQtQtQtQtQtQtQtQtQtQtQtQtQt"};

