/* XPM */
static const char *xpmExecute16x16[] = {
/* width height num_colors chars_per_pixel */
"    16    16       30            1",
/* colors */
". c #00550f",
"# c #006613",
"a c #045813",
"b c #0a6c1c",
"c c #0f7521",
"d c #1a7a2b",
"e c #1a7b2b",
"f c #1b6d29",
"g c #1e8430",
"h c #278537",
"i c #308c3f",
"j c #33813e",
"k c #338f42",
"l c #349644",
"m c #359844",
"n c #46a655",
"o c #499351",
"p c #539c5b",
"q c #53b160",
"r c #54b161",
"s c #58b565",
"t c #5db969",
"u c #6dc778",
"v c #6ec879",
"w c #75ce7f",
"x c #86dc8e",
"y c #92e699",
"z c #9cefa3",
"A c #aeffb4",
"B c none",
/* pixels */
"BBBBBBBBBBBBBBBB",
"BBBBBBBBBBBBBBBB",
"BBBBBmBBBBBBBBBB",
"BBBBBcrBBBBBBBBB",
"BBBBBeluBBBBBBBB",
"BBBBBhntxBBBBBBB",
"BBBBBiqvxzBBBBBB",
"BBBBBkswyAzBBBBB",
"BBBBBiqvxypBBBBB",
"BBBBBhntvoBBBBBB",
"BBBBBdlnjBBBBBBB",
"BBBBBbgfBBBBBBBB",
"BBBBB#aBBBBBBBBB",
"BBBBB.BBBBBBBBBB",
"BBBBBBBBBBBBBBBB",
"BBBBBBBBBBBBBBBB"
};
