/* XPM */
static const char *xpmInformation16x16[]={
"16 16 67 2",
"Qt c None",
".# c #000000",
".9 c #004a5f",
".W c #008eb6",
".R c #008eb7",
".Q c #0090b8",
".1 c #0090b9",
"#. c #0091ba",
".2 c #0093bd",
"## c #0094be",
".L c #0097c1",
".K c #0097c2",
".D c #009bc8",
".v c #009fcc",
".6 c #009fcd",
".E c #00a6d5",
"#a c #00a9da",
".0 c #00adde",
".J c #00b1e3",
".V c #00b5e8",
".P c #00b6e9",
".B c #00b9ed",
".I c #00c2f9",
".A c #00c3fa",
".y c #00c3fb",
".z c #00c4fc",
".u c #01a1cf",
".8 c #01a2cf",
".C c #01a5d4",
".n c #01b1e3",
".s c #01b9ed",
".l c #029eca",
".f c #029fcb",
".k c #02a4d2",
".t c #02abdb",
".Z c #02b7ea",
".m c #03a7d5",
".5 c #03abdb",
".U c #03bcf1",
".4 c #04a8d7",
".7 c #04a9d8",
".3 c #04b0e1",
".O c #04bef3",
".r c #05c1f6",
".e c #089ec9",
".Y c #08aedd",
".H c #09c1f5",
".X c #0bb4e4",
".g c #0cc3f7",
".T c #0fb7e6",
".w c #11c4f7",
".S c #12b9e9",
".M c #13baea",
".F c #13bff0",
".N c #14bded",
".q c #16c8fa",
".d c #17b3df",
".G c #1ac6f7",
".o c #1bcafc",
".j c #1dcdff",
".x c #1eccfd",
".h c #1ecdfe",
".p c #20cfff",
".a c #27d4ff",
".c c #28c9f7",
".i c #29d5ff",
".b c #36dcff",
"QtQtQtQtQtQtQtQtQtQtQtQtQtQtQtQt",
"QtQtQtQtQt.#.#.#.#.#.#QtQtQtQtQt",
"QtQtQt.#.#.a.b.c.d.e.f.#.#QtQtQt",
"QtQt.#.g.h.i.j.#.#.k.l.m.n.#QtQt",
"QtQt.#.o.p.q.r.#.#.s.t.u.v.#QtQt",
"Qt.#.w.x.q.r.y.z.z.A.B.C.D.E.#Qt",
"Qt.#.F.G.H.A.#.#.#.z.I.J.K.L.#Qt",
"Qt.#.M.N.O.z.z.#.#.z.z.P.Q.R.#Qt",
"Qt.#.S.T.U.z.z.#.#.z.z.V.W.W.#Qt",
"Qt.#.X.Y.Z.I.z.#.#.z.I.0.1.2.#Qt",
"Qt.#.3.4.5.s.I.#.#.I.V.D.1.6.#Qt",
"QtQt.#.7.8.C.9.#.#.9.D#.##.#QtQt",
"QtQt.#.n.v.D.#.#.#.#.1###a.#QtQt",
"QtQtQt.#.#.E.L.R.W.2.6.#.#QtQtQt",
"QtQtQtQtQt.#.#.#.#.#.#QtQtQtQtQt",
"QtQtQtQtQtQtQtQtQtQtQtQtQtQtQtQt"};


