/* XPM */
static const char *xpmStop16x16[] = {
/* width height num_colors chars_per_pixel */
"    16    16       74            2",
/* colors */
".. c #006200",
".# c #006600",
".a c #006a00",
".b c #007200",
".c c #007500",
".d c #007a00",
".e c #008000",
".f c #008600",
".g c #008b00",
".h c #009300",
".i c #009500",
".j c #009600",
".k c #009a00",
".l c #009e00",
".m c #00a000",
".n c #00a300",
".o c #00a800",
".p c #00ab00",
".q c #00af00",
".r c #00b300",
".s c #00b600",
".t c #00b700",
".u c #00b800",
".v c #00ba00",
".w c #00bd00",
".x c #00bf00",
".y c #00c000",
".z c #00c400",
".A c #00c500",
".B c #00cd00",
".C c #00cf00",
".D c #01c801",
".E c #01ce01",
".F c #02cf02",
".G c #02dd02",
".H c #04da04",
".I c #06d506",
".J c #0ad30a",
".K c #0dc20d",
".L c #12e812",
".M c #16cb16",
".N c #17df17",
".O c #1de31d",
".P c #20d220",
".Q c #22da22",
".R c #2acf2a",
".S c #35e435",
".T c #36db36",
".U c #36f136",
".V c #3aeb3a",
".W c #44e644",
".X c #46d846",
".Y c #48eb48",
".Z c #49df49",
".0 c #58e858",
".1 c #59f459",
".2 c #5fe55f",
".3 c #5fe75f",
".4 c #62e962",
".5 c #67f067",
".6 c #67f367",
".7 c #6cee6c",
".8 c #6eee6e",
".9 c #70f070",
"#. c #71f171",
"## c #75f375",
"#a c #76f476",
"#b c #86ed86",
"#c c #bcf4bc",
"#d c #d5efd5",
"#e c #d5f4d5",
"#f c #dcf1dc",
"#g c #e3f4e3",
"#h c #ffffff",
/* pixels */
"#h#h#h#h#h#h#h#h#h#h#h#h#h#h#h#h",
"#h#h#h#h#h#h#h#h#h#h#h#h#h#h#h#h",
"#h#h.C.C.C.C.C.C.C.C.B.u.b#h#h#h",
"#h#h.C#g#g#g#g#g#g#f#d.3.a#h#h#h",
"#h#h.C#g#a#a#a#a#..8.V.F.##h#h#h",
"#h#h.C#g#a#a##.9.7.0.N.y.##h#h#h",
"#h#h.C#e.1.6.5.4.2.T.J.s.##h#h#h",
"#h#h.C#c.U.Y.W.Z.X.R.D.o.##h#h#h",
"#h#h.B#b.L.O.Q.P.M.K.v.m.##h#h#h",
"#h#h.A.S.G.I.E.z.w.s.q.i.##h#h#h",
"#h#h.x.H.C.x.t.r.p.n.k.f..#h#h#h",
"#h#h.t.o.j.h.h.g.f.e.d.c..#h#h#h",
"#h#h.l.#.#.#.#.#.#........#h#h#h",
"#h#h#h#h#h#h#h#h#h#h#h#h#h#h#h#h",
"#h#h#h#h#h#h#h#h#h#h#h#h#h#h#h#h",
"#h#h#h#h#h#h#h#h#h#h#h#h#h#h#h#h"
};
