/* XPM */
static const char *xpmWarning16x16[]={
"16 16 64 1",
". c None",
"# c #000000",
"p c #363600",
"v c #606001",
"E c #afaf00",
"P c #b8b800",
"O c #baba00",
"3 c #bbbb00",
"7 c #bcbc00",
"Y c #bfbf00",
"8 c #c0c000",
"H c #c3c300",
"y c #c9c900",
"e c #caca08",
"j c #cbcb02",
"s c #cdcd00",
"f c #cdcd02",
"4 c #cece00",
"r c #d0d001",
"6 c #d1d101",
"M c #d5d501",
"z c #d6d600",
"x c #d6d601",
"k c #d7d703",
"0 c #d8d804",
"5 c #dada04",
"9 c #dbdb00",
"q c #dcdc02",
"1 c #dddd03",
"V c #dfdf08",
"X c #e0e000",
"d c #e1e117",
"Z c #e3e304",
"G c #e5e500",
"l c #e5e501",
"U c #e6e60b",
"R c #e8e80f",
"T c #eaea00",
"Q c #eaea12",
"N c #ebeb00",
"W c #ecec02",
"I c #ecec13",
"w c #efef00",
"2 c #efef01",
"J c #efef14",
"A c #f2f213",
"S c #f3f303",
"K c #f5f504",
"C c #f7f709",
"u c #f8f805",
"g c #f8f80c",
"t c #f8f811",
"c c #f8f828",
"B c #f9f91a",
"F c #fbfb00",
"D c #fcfc00",
"o c #fcfc16",
"L c #fefe00",
"m c #fefe1b",
"h c #ffff1e",
"n c #ffff20",
"a c #ffff27",
"i c #ffff29",
"b c #ffff36",
"................",
".....######.....",
"...##abcdef##...",
"..#ghi####jkl#..",
"..#mnop##pqrs#..",
".#thouv##vwxyz#.",
".#ABCDE##EFGHH#.",
".#IJKLM##MLNOP#.",
".#QRSLL##LLTPP#.",
".#UVWFL##LFXOY#.",
".#Z012FLLFTy34#.",
"..#56xG##Xy78#..",
"..#lsyH##O389#..",
"...##zHPPY4##...",
".....######.....",
"................"};

