/* XPM */
static const char * MySQL_16_xpm[] = {
"16 16 35 1",
" 	c #FFFFFFFFFFFF",
".	c #B4B4CECEEEEE",
"X	c #7373AAAAC5C5",
"o	c #7373AAAACDCD",
"O	c #F6F6F6F6FFFF",
"+	c #DEDEEAEAF6F6",
"@	c #9C9CC2C2D5D5",
"#	c #EEEEF2F2FFFF",
"$	c #8B8BBABACDCD",
"%	c #6262A1A1C5C5",
"&	c #9494BABACDCD",
"*	c #9C9CBEBEDEDE",
"=	c #FFFFF2F2FFFF",
"-	c #BDBDD6D6EEEE",
";	c #CDCDDEDEF6F6",
":	c #5A5A9999B4B4",
">	c #FFFFFAFAFFFF",
",	c #E6E6EEEEF6F6",
"<	c #ACACCACAE6E6",
"1	c #F6F6FAFAFFFF",
"2	c #5A5A9D9DB4B4",
"3	c #7B7BB2B2D5D5",
"4	c #DEDEE6E6F6F6",
"5	c #7373AAAABDBD",
"6	c #CDCDE2E2F6F6",
"7	c #C5C5DADAE6E6",
"8	c #7373B2B2CDCD",
"9	c #EEEEEEEEFFFF",
"0	c #8383B6B6CDCD",
"q	c #8B8BC2C2DEDE",
"w	c #6262A1A1BDBD",
"e	c #31318585A4A4",
"r	c #B4B4D2D2DEDE",
"t	c #ACACCACADEDE",
"y	c #6262A1A1CDCD",
"                ",
"                ",
" .XoO           ",
" +@#$%&         ",
"  *=- ;:>       ",
"  ,<>  12       ",
"   3    45      ",
"   67    8,     ",
"   @     90     ",
"   q1<    w>    ",
"   .<e    4:;   ",
"    w6@     rq> ",
"      >=   >ty< ",
"            2-  ",
"             @t ",
"                "};
