/* XPM */
static const char *xpmCabinetClosed16x16[] = {
/* columns rows colors chars-per-pixel */
"16 16 101 2",
"   c #35722e",
".  c #367e2d",
"X  c #129416",
"o  c #169518",
"O  c #149c17",
"+  c #149c18",
"@  c #1c961c",
"#  c #1c9d1b",
"$  c #1da21e",
"%  c #229f22",
"&  c #2d9429",
"*  c #37852e",
"=  c #368e2d",
"-  c #3d8935",
";  c #37902d",
":  c #36982b",
">  c #38982d",
",  c #3e9135",
"<  c #22a421",
"1  c #23aa24",
"2  c #2ea72a",
"3  c #2aac26",
"4  c #2eb42b",
"5  c #36a52b",
"6  c #3aa42e",
"7  c #3ea035",
"8  c #3cab30",
"9  c #32b42e",
"0  c #35ba2d",
"q  c #39b22c",
"w  c #3bbc2d",
"e  c #36b031",
"r  c #34ba32",
"t  c #3cb134",
"y  c #39bb33",
"u  c #3abd39",
"i  c #3dc02f",
"p  c #3dc339",
"a  c #45953c",
"s  c #419a37",
"d  c #449d3a",
"f  c #40a635",
"g  c #45a33b",
"h  c #48ab3d",
"j  c #43bf36",
"k  c #4bb340",
"l  c #4dbc42",
"z  c #41c433",
"x  c #40c63b",
"c  c #46c938",
"v  c #4bce3d",
"b  c #46cb40",
"n  c #4bc241",
"m  c #49cc44",
"M  c #4fd449",
"N  c #52cd44",
"B  c #5ac74f",
"V  c #58c94c",
"C  c #5bcd5a",
"Z  c #51d343",
"A  c #50d24a",
"S  c #57da49",
"D  c #59d24d",
"F  c #59dc4b",
"G  c #56d850",
"H  c #5de04f",
"J  c #60c055",
"K  c #63cf57",
"L  c #65cd5a",
"P  c #66d55b",
"I  c #62dd55",
"U  c #67d165",
"Y  c #6dde61",
"T  c #61e453",
"R  c #62e25a",
"E  c #67ea59",
"W  c #6aed5c",
"Q  c #6ff261",
"!  c #72e366",
"~  c #71eb64",
"^  c #73f665",
"/  c #77f06a",
"(  c #75f867",
")  c #77fa69",
"_  c #78fb6a",
"`  c #7ffd71",
"'  c #88ee7c",
"]  c #82fb75",
"[  c #86fc79",
"{  c #8efd83",
"}  c #91fd85",
"|  c #98fc8d",
" . c #9dfb93",
".. c #a1fd97",
"X. c #acfda3",
"o. c #b0fba8",
"O. c #befdb7",
"+. c #bffdb8",
"@. c #c7fdc1",
"#. c white",
"$. c None",
/* pixels */
"$.$.$.$.$.$.@.X.X.| [ $.$.$.$.$.",
"$.$.$.X.X.X...} ] ^ W E E $.$.$.",
"$.X.X...} ] ^ W T F Z c z N $.$.",
"$.O. .^ W T F Z c i q 8 V / $.$.",
"$.O.O.' Z c y q 5 f L R m ^ $.$.",
"$.X.X. .Y 5 : g P G u C U M $.$.",
"$. .{ ] ) L Y M r A Y B m m $.$.",
"$.] ^ Q E ! x x n s h y 3 F $.$.",
"$.~ E T F P r 5 = 2 1 1 # 4 $.$.",
"$.I S Z v V 9 & 1 < + p b 3 $.$.",
"$.N c z w l 0 < O r D d 9 1 $.$.",
"$.j w q 5 h 3 9 Z d 7 < % n $.$.",
"$.k 6 > ; d $ 0 t < X e $.$.$.$.",
"$.$.d * . , # 3 o % l $.$.$.$.$.",
"$.$.$.a   - @ @ 8 $.$.$.$.$.$.$.",
"$.$.$.$.a a l $.$.$.$.$.$.$.$.$."
};
