/* XPM */
static const char *xpmColumn16x16[]={
"16 16 5 1",
". c None",
"a c #000000",
"# c #00ff00",
"c c #aaaaaa",
"b c #ffffff",
"......####......",
"..aaaa#aa#aaaa..",
"..abbb#bb#bbba..",
"..abaa#aa#aaba..",
"..abcc#cc#ccba..",
"..abbb#bb#bbba..",
"..abaa#aa#aaba..",
"..abcc#cc#ccba..",
"..abbb#bb#bbba..",
"..abaa#aa#aaba..",
"..abcc#cc#ccba..",
"..abbb#bb#bbba..",
"..abaa#aa#aaba..",
"..abcc#cc#ccba..",
"..aaaa#aa#aaaa..",
"......####......"};

