/* XPM */
/* #C71BC30BC71B*/
static const char * xpmDataSourcesUser16x16[] = {
"16 16 11 1",
" 	c None",
".	c #000000000000",
"X	c #FFFFFFFF0000",
"o	c #FFFFFFFFFFFF",
"O	c #861782078617",
"+	c green",
"@	c #000000008617",
"#	c #0000FFFFFFFF",
"$	c #00000000FFFF",
"%	c #861782070000",
"&	c #FFFF0000FFFF",
"        .....   ",
"       .XXXXX.  ",
"      .XXX....  ",
"     .XXX.ooo.  ",
"     .XXX.oO..  ",
"  ....XX.ooooo. ",
" .++++XX.ooo+.  ",
" .+@@@XX.oooo.  ",
" .+@#$XX.oO..   ",
" .+@#$$%X.o..   ",
" .+$$$$$XX.o..  ",
" .++++++++&&o.  ",
" ..........&&&. ",
".++++++++++..   ",
".++++++++++..   ",
".............   "};

