/* XPM */
static const char * xpmDataSourcesSystem16x16[] = {
"16 16 7 1",
" 	c None",
".	c #000000000000",
"X	c #FFFFFFFFFFFF",
"o	c green",
"O	c #000000008617",
"+	c #0000FFFFFFFF",
"@	c #00000000FFFF",
"         .XXX.oo",
"        ...ooo.o",
"       .XXX.oooo",
"       .oooooooo",
"      ......oooX",
"  .....ooooooo..",
" .oooo.ooooooo..",
" .oOOO......oooX",
" .oO+@@.oooooXoX",
" .oO+@@.ooo.ooXo",
" .o@@@@....ooo.o",
" .ooooooo.ooo.oX",
" ............ooX",
".          .....",
".oooooooooo..   ",
".............   "};

