/* XPM */
static const char *xpmFolderOpen16x16[] = {
/* columns rows colors chars-per-pixel */
"16 16 103 2",
"   c #0e3e0b",
".  c #0a4605",
"X  c #094e04",
"o  c #0c4d09",
"O  c #0a5405",
"+  c #0a5a05",
"@  c #0e5c09",
"#  c #185213",
"$  c #0c6406",
"%  c #0e680a",
"&  c #12670d",
"*  c #136a0c",
"=  c #176e14",
"-  c #13720f",
";  c #147e0e",
":  c #177212",
">  c #1b7c14",
",  c #1d7f18",
"<  c #346631",
"1  c #1a8214",
"2  c #1b8c14",
"3  c #1d9016",
"4  c #1f9518",
"5  c #1b9d12",
"6  c #1eaf14",
"7  c #1fb016",
"8  c #218b1c",
"9  c #25981f",
"0  c #20a017",
"q  c #21a319",
"w  c #24b21a",
"e  c #28b51f",
"r  c #29ad20",
"t  c #2fb727",
"y  c #35b32c",
"u  c #20c215",
"i  c #25c31a",
"p  c #28c41f",
"a  c #2cc523",
"s  c #2ece24",
"d  c #34c72b",
"f  c #34cf2b",
"g  c #32c531",
"h  c #39cf30",
"j  c #39d92e",
"k  c #3bd831",
"l  c #3be12f",
"z  c #3ce130",
"x  c #47bb40",
"c  c #61815f",
"v  c #7f997e",
"b  c #42d238",
"n  c #41da36",
"m  c #44da3b",
"M  c #45e33a",
"N  c #4ae43f",
"B  c #4edc45",
"V  c #5cc655",
"C  c #4de542",
"Z  c #50e447",
"A  c #56e54c",
"S  c #54ee4a",
"D  c #59ef4f",
"F  c #5ee654",
"G  c #5ced52",
"H  c #52f047",
"J  c #58f04e",
"K  c #68c762",
"L  c #72d76c",
"P  c #75d270",
"I  c #7bdc7a",
"U  c #60ee57",
"Y  c #67ea5e",
"T  c #68f45e",
"R  c #6ce863",
"E  c #6df464",
"W  c #70e967",
"Q  c #76ea6d",
"!  c #79e571",
"~  c #7aeb72",
"^  c #7feb78",
"/  c #73f36a",
"(  c #83eb7c",
")  c #82f479",
"_  c #94db90",
"`  c #8aec84",
"'  c #8eeb88",
"]  c #8af482",
"[  c #91eb8c",
"{  c #96eb92",
"}  c #99e793",
"|  c #9aeb96",
" . c #9deb9a",
".. c #97f591",
"X. c #9cf497",
"o. c #a0eb9d",
"O. c #a5f59f",
"+. c #aaf5a6",
"@. c #aef5aa",
"#. c #b3f1b0",
"$. c #bcf5b8",
"%. c white",
"&. c None",
/* pixels */
"&.&.&.&.&.&.&.&.&.&.&.&.&.&.&.&.",
"&.l r r r &.&.&.&.&.&.&.&.&.&.&.",
"l r z M m r &.&.&.&.&.&.&.&.&.&.",
"r l C A F Y r r r r r r r r l &.",
"r N A F Y W ! R R W Q ~ ( r ` &.",
"r ^ ( ( ` ` ' [ [ | |  . .r I g ",
"r ! r r r r r w r r r r r r r r ",
"r L K $.+...) E S C k s u 7 ; % ",
"r V _ @.X.) / G Z m f p w q - + ",
"r y #...) T H M j s u 7 5 2 O O ",
"r x +.] / U A m h a e q 4 1 @ . ",
"r P ] / D C n f i w 0 3 1 & # &.",
"r { E J C n f i w q 2 > : @ < &.",
"r +.T F B b d t r 9 8 1 = o c &.",
"w > & * $ $ + + O X . . .   v &.",
"r &.&.&.&.&.&.&.&.&.&.&.&.&.&.&."
};
