/* XPM */
static const char *xpmFolderClosed16x16[] = {
/* columns rows colors chars-per-pixel */
"16 16 89 1",
"  c black",
". c #0e3e0b",
"X c #0a4406",
"o c #094c04",
"O c #0a5405",
"+ c #0c5009",
"@ c #0a5b05",
"# c #0d5d0b",
"$ c #0c6405",
"% c #0d6409",
"& c #0e690a",
"* c #13640f",
"= c #136b0c",
"- c #156c11",
"; c #177612",
": c #177c12",
"> c #187612",
", c #197916",
"< c #1a8414",
"1 c #1d8219",
"2 c #1a8914",
"3 c #1c9216",
"4 c #1f9519",
"5 c #1b9914",
"6 c #1ca613",
"7 c #1fa019",
"8 c #1eaa15",
"9 c #1fb615",
"0 c #228f1d",
"q c #279c21",
"w c #22a11a",
"e c #24af1c",
"r c #24b01a",
"t c #20b915",
"y c #25bc1b",
"u c #29ad20",
"i c #28b120",
"p c #29bc20",
"a c #31b829",
"s c #26c41b",
"d c #28c61e",
"f c #2dc024",
"g c #35c52b",
"h c #31cc27",
"j c #34ca2b",
"k c #3dcc33",
"l c #32d127",
"z c #35d22a",
"x c #3dd533",
"c c #3edc33",
"v c #3be12f",
"b c #3de131",
"n c #42d339",
"m c #40db36",
"M c #49e33e",
"N c #4ddc44",
"B c #4be441",
"V c #56e64d",
"C c #54eb49",
"Z c #58ef4e",
"A c #59e250",
"S c #5be952",
"D c #55f14a",
"F c #5ff455",
"G c #62e759",
"H c #64ed5b",
"J c #66f35b",
"K c #68f55e",
"L c #7aeb72",
"P c #73f56a",
"I c #7cf474",
"U c #82ec7b",
"Y c #8bed84",
"T c #8fee88",
"R c #87f480",
"E c #8af682",
"W c #8ff588",
"Q c #94f68c",
"! c #9bf596",
"~ c #a3f59d",
"^ c #a5f6a0",
"/ c #aef4a9",
"( c #b3f6af",
") c #b7f4b3",
"_ c #c1f7bc",
"` c #c8f7c5",
"' c #cff8cc",
"] c white",
"[ c None",
/* pixels */
"[[[[[[[[[[[[[[[[",
"[[uuee[[[[[[[[[[",
"[u/TLku[[[[[[[[[",
"u)Ubczguuuuuuuuu",
"uUbvvcvGYYYYYYYu",
"uuuuueueuuuuuuu5",
"u'_(~QIJCMchs96%",
"u`)~QIJZBczdt85%",
"u)/!UPJVNxjpe73&",
"u^QIKDMmls9852:O",
"u^WIKSNnjfiw42:%",
"uEPFCBxjsew3<;-@",
"uPJCmxjsr73<;-*+",
"uPHANngauq01,-*#",
"u==&$$@@OOooXX..",
"[[[[[[[[[[[[[[[["
};
