/* XPM */
static const char * xpmID16x16[] = {
"16 16 4 1",
" 	c green",
".	c none",
"X	c #000000000000",
"o      c green",
"                ",
" XXXXXXXXXXXXXX ",
" XXXXXXXXXXXXXX ",
" XoooXXooooooXX ",
" XXoXXXXoXXXoXX ",
" XXoXXXXoXXXXoX ",
" XXoXXXXoXXXXoX ",
" XXoXXXXoXXXXoX ",
" XXoXXXXoXXXXoX ",
" XXoXXXXoXXXXoX ",
" XXoXXXXoXXXoXX ",
" XoooXXooooooXX ",
" XXXXXXXXXXXXXX ",
" XXXXXXXXXXXXXX ",
" XXXXXXXXXXXXXX ",
"                "};


