/* XPM */
static const char *xpmIndex16x16[] = {
/* columns rows colors chars-per-pixel */
"16 16 4 1",
"  c black",
". c green",
"X c white",
"o c None",
/* pixels */
"oooooooooooooooo",
"oooooooooooooooo",
"oooooooooooooooo",
"oooooo oooooooo ",
"ooooo . oooooo o",
"ooooo .. ooo   o",
"oooo .... o . oo",
"oooo ..... .. oo",
"ooo .. ..... ooo",
"ooo . o .... ooo",
"oo   ooo .. oooo",
"oo oooooo . oooo",
"o oooooooo ooooo",
"oooooooooooooooo",
"oooooooooooooooo",
"oooooooooooooooo"
};


