/* XPM */
static const char *xpmODBC16x16[]={
"16 16 104 2",
"Qt c None",
".# c #000000",
"#q c #004600",
"#i c #005501",
"#a c #006501",
"#x c #013800",
"#p c #013d01",
"#h c #014d01",
"#r c #014e01",
"## c #015c01",
"#j c #015e01",
"#k c #016701",
".3 c #016c01",
"#b c #016e01",
".4 c #017501",
"#c c #017701",
".U c #017b01",
".5 c #017e01",
".V c #018401",
".K c #018c01",
".W c #018e01",
".L c #019501",
".M c #019d01",
".z c #01a402",
".A c #01ac02",
".p c #01bb01",
".E c #01cc01",
".g c #01cf01",
".s c #01d102",
".6 c #028701",
".X c #029702",
".N c #02a601",
".O c #02ae02",
".o c #02b302",
".B c #02b502",
".C c #02bd01",
".q c #02c302",
".D c #02c502",
".f c #02c801",
".r c #02ca02",
".h c #02d602",
".t c #02d802",
".i c #02dc02",
".a c #02e002",
".j c #02e102",
".b c #02e502",
".c c #02ea02",
".d c #103030",
".e c #113636",
".k c #143d3d",
".l c #164343",
".m c #18494a",
".u c #194b4b",
".n c #1a5050",
".v c #1a5152",
".w c #1d5858",
".F c #1d595b",
".x c #1f5e5e",
".G c #1f5f60",
".y c #216565",
".H c #226768",
".I c #246d6e",
".P c #256f6f",
".J c #267374",
".Q c #277676",
".R c #297c7d",
".S c #2b8283",
".Z c #2b8485",
".T c #2d898a",
".0 c #2d8a8c",
".1 c #309193",
".7 c #309394",
".2 c #329799",
".8 c #32999b",
".9 c #35a0a1",
"#d c #35a1a3",
"#. c #36a6a7",
"#e c #37a7a9",
"#f c #39adaf",
"#l c #39afb0",
"#g c #3bb3b4",
"#m c #3bb5b6",
"#n c #3db9bb",
"#t c #3ebbbd",
"#o c #3fbfc1",
"#u c #3fc0c2",
"#v c #41c6c7",
"#w c #42cbcc",
"#F c #43ccce",
"#K c #440000",
"#G c #45d1d2",
"#J c #48dadc",
"#I c #5b0000",
"#E c #730000",
"#D c #8b0000",
"#L c #8c0000",
"#C c #a40000",
"#B c #bb0000",
"#A c #d00000",
"#s c #e30000",
"#z c #e40000",
"#y c #f30000",
"#H c #ff0000",
".Y c #ffffff",
"QtQtQtQtQt.#.#.#.#.#.#QtQtQtQtQt",
"QtQtQt.#.#.a.b.c.#.d.e.#.#QtQtQt",
"QtQt.#.f.g.h.i.j.#.k.l.m.n.#QtQt",
"Qt.#.o.p.q.r.s.t.#.u.v.w.x.y.#Qt",
"Qt.#.z.A.B.C.D.E.#.F.G.H.I.J.#Qt",
".#.K.L.M.N.O.#.#.#.#.P.Q.R.S.T.#",
".#.U.V.W.X.#QtQtQtQt.#.Z.0.1.2.#",
".#.3.4.5.6.#QtQtQtQt.#.7.8.9#..#",
".####a#b#c.#QtQtQtQt.##d#e#f#g.#",
".##h#i#j#k.#QtQtQtQt.##l#m#n#o.#",
".##p#q#r.##s.#.#.#.#.##t#u#v#w.#",
"Qt.##x.##y#z#A#B#C#D#E.##F#G.#Qt",
"Qt.#.##H#y#s#A#B#C#D#E#I.##J.#Qt",
"QtQt.##H#y#s#A#B#C#D#E#I#K.#QtQt",
"QtQtQt.#.##s#A#B#C#L#E.#.#QtQtQt",
"QtQtQtQtQt.#.#.#.#.#.#QtQtQtQtQt"};


