/* XPM */
static const char * xpmPrimaryKey16x16[] = {
"20 14 7 1",
" 	c None",
".	c #F6E807",
"+	c #FCF9BF",
"@	c #7B7404",
"#	c #787103",
"$	c #B8AD05",
"o      c green",
"                    ",
"                    ",
"                    ",
"   ....             ",
"  .+@@..            ",
"  .#oo##..........  ",
"  .#oo############  ",
"  .#oo#######$$$##  ",
"  .#####     $. #.  ",
"   ####      $. #.  ",
"             $. #.  ",
"                    ",
"                    ",
"                    "};


