/* XPM */
static const char *xpmProperties16x16[] = {
/* width height num_colors chars_per_pixel */
"    22    22       86            2",
/* colors */
".. c none",
".# c #010101",
".a c #020202",
".b c #0b0b0b",
".c c #0c0c0c",
".d c #141414",
".e c #222222",
".f c #252525",
".g c #313131",
".h c #343434",
".i c #383838",
".j c #3a3a3a",
".k c #3c3c3c",
".l c #3d3d3d",
".m c #3e3e3e",
".n c #3e6ca9",
".o c #3f3f3f",
".p c #3f6dab",
".q c #404040",
".r c #4171b1",
".s c #444444",
".t c #474747",
".u c #484848",
".v c #497fc7",
".w c #4b4b4b",
".x c #4d86d2",
".y c #505050",
".z c #515151",
".A c #525252",
".B c #535353",
".C c #5390e2",
".D c #545454",
".E c #555555",
".F c #565656",
".G c #5797ed",
".H c #5e5e5e",
".I c #606060",
".J c #626262",
".K c #636363",
".L c #656565",
".M c #6666ab",
".N c #676767",
".O c #686868",
".P c #6868b0",
".Q c #6b6bbc",
".R c #6e6e6e",
".S c #6e6ec4",
".T c #6f6f6f",
".U c #6f6fc8",
".V c #7171cd",
".W c #737373",
".X c #75a5e4",
".Y c #797979",
".Z c #7e7e7e",
".0 c #838383",
".1 c #88a8d4",
".2 c #8a8a8a",
".3 c #8ba5c9",
".4 c #8d8d8d",
".5 c #939393",
".6 c #999999",
".7 c #9d9d9d",
".8 c #a5a5a5",
".9 c #a93e3e",
"#. c #ab3f3f",
"## c #adadad",
"#a c #b0b0b0",
"#b c #b54242",
"#c c #b5b5b5",
"#d c #bfbfbf",
"#e c #c2c2c2",
"#f c #c3c3c3",
"#g c #c4c4c4",
"#h c #c74949",
"#i c #c98b8b",
"#j c #cbcbcb",
"#k c #d24d4d",
"#l c #d2d2d2",
"#m c #d48888",
"#n c #dadada",
"#o c #dedede",
"#p c #e25353",
"#q c #e47575",
"#r c #e8e8e8",
"#s c #eaeaea",
"#t c #f25959",
/* pixels */
"............................................",
"............................................",
".........L.y.l.i...u.s.j.i...u.q.f.#........",
".......W#r#o#o#l.h#i#i#m#q.h.3.3.1.X........",
".....W#s#n#g#g#e#e.e#h#k#p#t.e.v.x.C.G......",
"...N#r#n#g#g#g#g#e#e.c#b.9#.#..b.r.n.p.p....",
"...F#o#g#g#g#g#g#g#e#e.#.#.a.a.#............",
"...t#o#g#g#g#g#g#g#g#e#j#o#o#o#o#o#o#o#d....",
"...o#o#g#g#g#g#g#g#g#g#g.4.0#g#g#a###g.8....",
"...m#o#g#g#g#g#g#g#g#g#g.6.w.2#c.J#g#g.8....",
"...m#o#g.Z.Y.R.I.E.V#g#g#g.5.w.w#g#g#g.8....",
"...m#o#g#g#g#g#g#g#g#g#g#g.A.w.w#f#g#g.8....",
"...m#o#g.Y.T.H.D.D.S#g#g.O#a#g.z.z#g#g.8....",
"...m#o#g#g#g#g#g#g#g#g#g#g#g#g#g#g#g#g.8....",
"...m#o#g.K.E.D.B.A.P#g#g.D.D.D.U#g#g#g.8....",
"...k#o#g#g#g#g#g#g#g#g#g#g#g#g#g#g#g#g.8....",
"...g#o#g.D.D.B.A.A.M#g#g.B.B.B.Q#g#g#g.8....",
"...d#o#g#g#g#g#g#g#g#g#g#g#g#g#g#g#g#g.8....",
"....#d.8.8.8.8.8.8.8.8.8.8.8.8.8.8.8.8.7....",
"............................................",
"............................................",
"............................................"
};

