/* XPM */
static const char *xpmRefresh16x16[] = {
/* width height num_colors chars_per_pixel */
"    16    16       70            2",
/* colors */
".. c #000000",
".# c #010101",
".a c #020202",
".b c #040404",
".c c #040d00",
".d c #050505",
".e c #0c2600",
".f c #0d0d0d",
".g c #111111",
".h c #113800",
".i c #121212",
".j c #124515",
".k c #153c17",
".l c #154400",
".m c #161616",
".n c #191919",
".o c #1a1a1a",
".p c #1b521e",
".q c #1b571a",
".r c #1c4e1f",
".s c #1c501b",
".t c #1e1e1e",
".u c #1e5421",
".v c #208a17",
".w c #215824",
".x c #232323",
".y c #235326",
".z c #244926",
".A c #249215",
".B c #262626",
".C c #265c28",
".D c #289b19",
".E c #295f2c",
".F c #2d2d2d",
".G c #2f783f",
".H c #2f7a41",
".I c #2fa522",
".J c #313131",
".K c #333333",
".L c #363636",
".M c #373737",
".N c #3d3d3d",
".O c #3fbe31",
".P c #44cb35",
".Q c #44cd36",
".R c #454545",
".S c #46cf36",
".T c #4c4c4c",
".U c #525252",
".V c #535353",
".W c #56a64f",
".X c #585858",
".Y c #5d5d5d",
".Z c #6ebc66",
".0 c #7b7b7b",
".1 c #818181",
".2 c #929292",
".3 c #9f9f9f",
".4 c #a9a9a9",
".5 c #a9d7ad",
".6 c #b2b2b2",
".7 c #b3d8b2",
".8 c #b5d7b3",
".9 c #b8b8b8",
"#. c #bababa",
"## c #c6e0c4",
"#a c #dbecda",
"#b c #e4e4e4",
"#c c #fefefe",
"#d c none",
/* pixels */
"#d#d#d#d#d.C.u.u.u.u.l#d#d#d#d#d",
"#d#d#d#d.E.7.v.I.l.h.e.l.l#d#d#d",
"#d#d#d.w#a.v.I.l#d#d#d...c.l#d#d",
"#d#d#d.y.5.I.l#d#d#d#d#d#d...l#d",
"#d#d#d.r.Z.O.l#d#d#d#d#d#d#d#d#d",
".p.s.p.r.W.O.l.l.l.l#d#d#b#d#d#d",
"#d.q.8.Z.D.A.G.S.k#d#d.m#d#d#d#d",
"#d#d.z##.A.H.Q.k#d#d.x.9..#d#d#d",
"#d#c#d.j.8.P.k#d#d.d#..V.U..#d#d",
"#d#d#d#d.k.k#d#d...4.X.F.L.U..#d",
"#d#d#d#d#d#d#d.g.g.b.0.J.0.g.g.g",
"#d#d#d#d#d#d#d#d#d.K.3.M..#d#d#d",
"#d....#d#d#d#d#d#d...1.T.n#d#d#d",
"#d#d.#.#..#d#d#d...6.X.R..#d#d#d",
"#d#d#d.i.o...a.V.2.Y.N.f#d#d#d#d",
"#d#d#d#d#d.g.B.....t..#d#d#d#d#d"
};

