/* XPM */
static const char *xpmDatabaseBrowse48x48[]={
"48 48 256 2",
"Qt c None",
".# c #000000",
".U c #002300",
".b c #003700",
".c c #003d00",
".h c #004300",
".g c #004d00",
".t c #005500",
".s c #005c00",
".r c #006300",
".q c #006900",
".K c #007000",
".J c #007700",
".O c #007800",
".I c #007f00",
".H c #008600",
".G c #008e00",
".F c #009600",
".E c #009d00",
".D c #00a500",
".C c #00ad00",
".B c #00b400",
".N c #00bb00",
".A c #00bc00",
".z c #00c300",
".y c #00ca00",
".x c #00d000",
".M c #00d100",
".p c #00d700",
".W c #00d800",
".w c #00dd00",
".o c #00de00",
".L c #00e300",
".n c #00e400",
".m c #00e900",
".v c #00ea00",
".u c #00ee00",
".l c #00ef00",
".k c #00f300",
".f c #00f400",
".j c #00f700",
".e c #00f800",
".d c #00fb00",
".i c #00fc00",
".a c #00ff00",
"bX c #022241",
"bE c #04294d",
"be c #042e56",
"bW c #044078",
"b8 c #063563",
".X c #068006",
".R c #080a0c",
"bk c #091826",
"bC c #092743",
"bB c #09325a",
"bq c #094279",
"b4 c #094f93",
".7 c #0c870c",
"bV c #0d64b8",
"bO c #0d6bc5",
"a6 c #0e477e",
"bd c #0e5aa3",
"b9 c #11406d",
"bD c #116cc4",
"bl c #132f4a",
"aZ c #135695",
"bU c #137ce2",
"bN c #1383ef",
"a5 c #1671c9",
"bH c #1676d1",
"bT c #1788f4",
".S c #191919",
"bm c #1a4976",
"bA c #1a5288",
"bM c #1a8efd",
"aj c #1b2128",
"bc c #1c82e5",
"bp c #1c8bf5",
"bL c #1f90fd",
".Q c #212121",
"aO c #2166a8",
"aY c #227fd9",
"bo c #2292ff",
"b5 c #23527f",
"ab c #243546",
"b7 c #2479ca",
"bb c #2593fd",
"bn c #2685e2",
"a4 c #268ff6",
"bG c #2694fe",
"b6 c #27649d",
"bz c #276fb4",
"aJ c #2971b6",
".T c #2c2c2c",
"aa c #2c4257",
"a3 c #2c98fe",
"aX c #2e97fc",
"aN c #328ee4",
"ba c #329afe",
"bF c #33495f",
"aA c #337bc0",
"#0 c #344e66",
"a2 c #349bfe",
".8 c #353535",
"by c #3588d6",
"aW c #369cff",
"bY c #376591",
"ai c #384049",
"bj c #385775",
"b3 c #389cfa",
"bZ c #3970a5",
"#4 c #3a3e42",
"b# c #3b9efe",
"#O c #3c5d7c",
"bv c #3c6388",
"aI c #3c93e7",
"b2 c #3d99f1",
"aV c #3d9ffe",
"ak c #3e5a75",
"b0 c #3e81c0",
"b1 c #3f90df",
"aM c #41a2fe",
".P c #434343",
"#Z c #446280",
"az c #449aec",
"aU c #44a3fe",
"bu c #45637f",
"aL c #49a5fe",
"bw c #4a80b4",
".5 c #4b4f52",
"aH c #4ba6fe",
"bI c #4d759c",
"aq c #4d98e2",
"aT c #4da8fe",
"a# c #4e6b87",
"ae c #5094d5",
"bS c #51a6fa",
"aG c #51a9fe",
"#1 c #5285b5",
"bx c #52a2ee",
"bP c #548fc6",
"ay c #54abfe",
"al c #557fa7",
"bR c #55a5f0",
"bQ c #569cdf",
"aF c #5aaefe",
"ap c #5cadfa",
"ah c #5d6974",
"ax c #5daffe",
"ac c #629cd5",
"aw c #62b2fe",
"ad c #63acf1",
"#N c #648eb5",
"ao c #65b2fd",
"am c #69a6e0",
"bK c #6ab4f9",
"aE c #6ab6fd",
".1 c #6c6c6c",
"a. c #6d91b4",
"bJ c #6eaeed",
"an c #6eb7fd",
"#3 c #727b83",
"av c #73b9fd",
"#Y c #74a4d2",
"bi c #7bafdf",
"bt c #7caad6",
"au c #7cbefd",
"#R c #7d8185",
"aS c #7fc0fd",
"#Q c #828485",
"aD c #84c2fd",
"ag c #8897a5",
"at c #88c4fd",
"#9 c #89afd5",
"as c #8dc6fc",
"#5 c #8fa1b3",
"#M c #91c8fd",
"#A c #94c9fd",
"b. c #95cafd",
"br c #96c1e9",
"bs c #97c8f7",
"#L c #97cbfc",
"aR c #99cbfd",
"bh c #9accfc",
"#X c #9ccdfd",
"#K c #9dcefc",
"a1 c #9fcffd",
"#8 c #a0c8ee",
"aQ c #a1cffd",
"#z c #a2d1fc",
"bg c #a3d0fb",
"#6 c #a4bcd4",
"#W c #a4d1fd",
"a9 c #a5d0fb",
"#J c #a6d2fd",
"bf c #a7cff5",
"#y c #a8d3fd",
"a8 c #acd4fa",
"#V c #acd4fd",
"#x c #acd5fd",
"#I c #aed5fc",
"#7 c #afcfed",
"a0 c #afd6fc",
"#r c #b0d7fd",
"#U c #b4d9fd",
"#H c #b6d9fc",
"a7 c #b7d9fc",
"#w c #b7dafc",
"aP c #b8dbfc",
"#q c #b9dcfd",
"aK c #bcdcfc",
"af c #bdcfdf",
"#G c #bdddfc",
"#p c #bddefd",
"#S c #bfc8d2",
"#v c #bfdefb",
"#o c #c0dffc",
"#B c #c3c4c4",
"#n c #c3e0fc",
"#u c #c6e1fc",
"#m c #c9e4fc",
"#2 c #ccd4db",
"#F c #cce4fc",
"#C c #cecfd1",
"#f c #cee5fc",
"#e c #d1e7fc",
"#d c #d4e8fc",
"#T c #d7eafc",
"#P c #d9dadc",
"#c c #d9ebfd",
"aC c #daecfc",
"#t c #dbecfc",
"#l c #dcecfb",
"#b c #deedfb",
".4 c #e1effc",
"#k c #e3f0fb",
"ar c #e3f0fc",
"#E c #e5f1fb",
"aB c #e6f1fd",
".3 c #e8f2fc",
"#j c #eaf3fb",
"#g c #ebebeb",
"#D c #ebf4fb",
".2 c #ebf4fd",
"#s c #edf4fb",
"#a c #eef5fc",
"#i c #f1f6fc",
".0 c #f3f8fd",
"## c #f4f8fd",
".6 c #f6f6f6",
"#h c #f6f9fc",
".Z c #f7fafd",
"#. c #f8fbfd",
".Y c #fafcfe",
".V c #fbfbfb",
".9 c #fcfcfd",
"QtQtQtQtQtQtQtQtQtQtQtQtQtQtQtQtQtQtQtQtQtQtQtQtQtQtQtQtQtQtQtQtQtQtQtQtQtQtQtQtQtQtQtQtQtQtQtQt",
"QtQtQtQtQtQtQtQtQtQtQtQtQtQtQtQtQtQtQtQtQtQtQtQtQtQtQtQtQtQtQtQtQtQtQtQtQtQtQtQtQtQtQtQtQtQtQtQt",
"QtQtQtQtQtQtQtQtQtQtQtQtQtQtQtQtQtQtQtQtQtQtQtQtQtQtQtQtQtQtQtQtQtQtQtQtQtQtQtQtQtQtQtQtQtQtQtQt",
"QtQtQtQtQtQtQtQtQtQtQtQtQtQt.#.#.#.#.#.#.#.#.#.#.#.#.#.#QtQtQtQtQtQtQtQtQtQtQtQtQtQtQtQtQtQtQtQt",
"QtQtQtQtQtQtQtQtQt.#.#.#.#.#.a.a.a.a.a.a.a.a.a.a.a.a.a.a.#.#.#.#.#QtQtQtQtQtQtQtQtQtQtQtQtQtQtQt",
"QtQtQtQtQtQt.#.#.#.a.a.a.a.a.a.a.a.a.a.a.a.a.a.a.a.a.a.a.a.a.a.a.a.#.#.#QtQtQtQtQtQtQtQtQtQtQtQt",
"QtQtQtQtQt.#.a.a.a.a.a.a.a.a.a.a.a.a.a.a.a.a.a.a.a.a.a.a.a.a.a.a.a.a.a.a.#QtQtQtQtQtQtQtQtQtQtQt",
"QtQtQtQt.#.a.a.a.a.a.a.a.a.a.a.a.a.a.a.a.a.a.a.a.a.a.a.a.a.a.a.a.a.a.a.a.a.#QtQtQtQtQtQtQtQtQtQt",
"QtQtQt.#.a.a.a.a.a.a.a.a.a.a.a.a.a.a.a.a.a.a.a.a.a.a.a.a.a.a.a.a.a.a.a.a.a.a.#QtQtQtQtQtQtQtQtQt",
"QtQtQt.#.a.a.a.a.a.a.a.a.a.a.a.a.a.a.a.a.a.a.a.a.a.a.a.a.a.a.a.a.a.a.a.a.a.a.#QtQtQtQtQtQtQtQtQt",
"QtQtQt.#.#.a.a.a.a.a.a.a.a.a.a.a.a.a.a.a.a.a.a.a.a.a.a.a.a.a.a.a.a.a.a.a.a.#.#QtQtQtQtQtQtQtQtQt",
"QtQtQt.#.a.#.a.a.a.a.a.a.a.a.a.a.a.a.a.a.a.a.a.a.a.a.a.a.a.a.a.a.a.a.a.a.#.b.#QtQtQtQtQtQtQtQtQt",
"QtQtQt.#.a.a.#.#.#.a.a.a.a.a.a.a.a.a.a.a.a.a.a.a.a.a.a.a.a.a.a.a.a.#.#.#.c.b.#QtQtQtQtQtQtQtQtQt",
"QtQtQt.#.a.a.d.e.f.#.#.#.#.#.a.a.a.a.a.a.a.a.a.a.a.a.a.a.#.#.#.#.#.g.h.c.c.b.#QtQtQtQtQtQtQtQtQt",
"QtQtQt.#.a.a.i.j.k.l.m.n.o.p.#.#.#.#.#.#.#.#.#.#.#.#.#.#.q.r.s.t.g.g.h.c.c.b.#QtQtQtQtQtQtQtQtQt",
"QtQtQt.#.a.a.i.j.f.u.v.n.w.p.x.y.z.A.B.C.D.E.F.G.H.I.J.K.q.r.s.t.g.g.h.c.c.b.#QtQtQtQtQtQtQtQtQt",
"QtQtQt.#.a.a.d.e.f.l.m.L.o.p.M.y.z.N.B.C.D.E.F.G.H.I.O.K.s.c.P.Q.R.#.R.S.T.U.#.VQtQtQtQtQtQtQtQt",
"QtQtQt.#.a.a.i.j.k.u.v.n.o.W.M.y.z.N.B.C.D.E.F.G.H.X.q.c.Q.#.Y.Z.0.1.2.3.4.#.5QtQt.6QtQtQtQtQtQt",
"QtQtQt.#.a.a.i.e.k.l.m.n.w.p.x.y.z.A.B.C.D.E.F.G.7.s.8.#.9#.###a.3.T#b#c#d#e#f.P.8Qt#gQtQtQtQtQt",
"QtQtQt.#.a.a.d.e.k.l.v.n.w.p.M.y.z.N.B.C.D.E.F.G.s.S.9.Y#h#i#j#k#l.##f#m#n#o#p#q#r.S.6QtQtQtQtQt",
"QtQtQt.#.a.a.d.e.k.u.m.L.w.p.M.y.z.A.B.C.D.E.F.q.S.9#.###s.3.4#t#d.##u#v#w#r#x#y#z#A.#QtQtQtQtQt",
"QtQtQt.#.a.a.d.e.k.u.m.L.o.W.M.y.z.N.B.C.D.E.H.T#B#C.0#D#E#b#c#d#F.##G#H#I#J#K#L#M#N#O.#QtQtQtQt",
"QtQtQt.#.a.a.d.e.f.l.m.n.w.p.M.y.z.A.B.C.D.E.g.##P#Q#R#S#b#T#e#m#n.##U#V#W#X#A#Y#Z#0#1.#QtQtQtQt",
"QtQtQt.#.a.a.i.e.k.l.m.n.o.p.M.y.z.A.B.C.D.G.S#..0#2#3#4.5#3#5#6#7.##8#9a.a#aaab#Oacadae.#QtQtQt",
"QtQtQt.#.a.a.i.j.f.l.m.L.o.W.M.y.z.N.B.C.D.r.#.0.2#k#tafagahaiaj.R.#.Rajabakalamanaoapaq.#QtQtQt",
"QtQtQt.#.a.a.d.j.f.u.m.L.w.p.M.y.z.N.B.C.D.T.0#aar#t#d#f#u#v#w#r#y.##LasatauavanawaxayazaA.#QtQt",
"QtQtQt.#.a.a.d.e.k.l.v.n.o.p.M.y.z.N.B.C.D.S#aaBaC#e#F#u#G#w#I#J#K.#asaDauavaEawaFaGaHaIaJ.#QtQt",
"QtQtQt.#.a.a.i.e.f.l.m.L.o.W.M.y.z.A.B.C.D.R#k#b#e#m#naK#U#x#W#X#A.#aDauavaEawaFaGaLaMaNaO.#QtQt",
"QtQtQt.#.a.a.i.e.k.l.m.L.o.p.M.y.z.N.B.C.D.#.8.S.#.#.#.#.#.#.#.#.#.#.#.#.#.#.#.#.#.#.#.#.#.#QtQt",
"QtQtQt.#.a.a.i.e.f.l.m.n.w.p.M.y.z.N.B.C.D.##T#F#vaP#r#yaQaR#MataS.#anaoaxayaTaUaVaWaXaYaZ.#QtQt",
"QtQtQt.#.a.a.i.e.k.l.m.n.o.W.M.y.z.N.B.C.D.R#F#n#Ha0#ya1#LasaDauav.#aoaFayaHaUaVa2a3a4a5a6.#QtQt",
"QtQtQt.#.a.a.i.e.f.l.m.L.o.p.M.y.z.A.B.C.D.#aKa7a8a9#Kb.asaDauavaE.#aFaGaLaMb#baa3bbbcbdbe.#QtQt",
"QtQtQt.#.a.a.d.j.f.l.m.n.o.p.M.y.z.A.B.C.D.r.#bfbgbh#Abialbjabbk.R.#.RbkblbmaObnbobpa5bq.#QtQtQt",
"QtQtQt.#.a.a.i.j.k.l.m.n.o.p.M.y.z.N.B.C.D.G.#brbsbtbuabaabvbwaebx.#azbybzbAbBbCa6bDbdbE.#QtQtQt",
"QtQtQt.#.a.a.i.e.f.u.m.n.o.p.x.y.z.A.B.C.D.E.g.##NbF#OacanaoaxayaT.#aVaWa3bGbobHbqbEbe.#QtQtQtQt",
"QtQtQt.#.a.a.i.e.k.l.v.L.o.p.x.y.z.A.B.C.D.E.H.##0bIbJbKaoaFayaHaU.#a2a3bGbLbMbNbObebk.#QtQtQtQt",
"QtQtQt.#.a.a.i.e.k.l.m.n.o.W.M.y.z.A.B.C.D.E.F.q.##1bPbQbRbSaLaMb#.#a3bGbLbTbUbVbWbX.#QtQtQtQtQt",
"QtQtQt.#.a.a.d.e.k.u.m.n.o.W.M.y.z.A.B.C.D.E.F.G.t.#bYbZb0b1b2b3ba.#bbbpbUbOb4bebX.#.6QtQtQtQtQt",
"QtQtQt.#.a.a.i.e.f.l.m.n.o.W.M.y.z.A.B.C.D.E.F.G.I.s.#.#b5b6aJb7b7.#a5bVb4b8bX.#.#Qt#gQtQtQtQtQt",
"QtQtQt.#.a.a.i.e.f.l.m.L.o.p.x.y.z.A.B.C.D.E.F.G.H.O.q.c.#.#b9b9b9.#b8bEbX.#.#QtQt.6QtQtQtQtQtQt",
"QtQtQt.#.a.a.i.e.f.l.m.L.o.p.M.y.z.N.B.C.D.E.F.G.H.I.O.K.s.c.#.#.#.#.#.#.#.U.#.VQtQtQtQtQtQtQtQt",
"QtQtQt.#.a.a.i.j.k.u.m.n.o.p.M.y.z.A.B.C.D.E.F.G.H.I.J.K.q.r.s.t.g.g.h.c.c.b.#QtQtQtQtQtQtQtQtQt",
"QtQtQtQt.#.a.i.e.f.l.m.n.o.p.x.y.z.A.B.C.D.E.F.G.H.I.O.K.q.r.s.t.g.g.h.c.c.#QtQtQtQtQtQtQtQtQtQt",
"QtQtQtQtQt.#.d.e.k.l.m.L.w.W.M.y.z.N.B.C.D.E.F.G.H.I.O.K.q.r.s.t.g.g.h.c.#QtQtQtQtQtQtQtQtQtQtQt",
"QtQtQtQtQtQt.#.#.#.l.v.L.w.p.x.y.z.A.B.C.D.E.F.G.H.I.J.K.q.r.s.t.g.#.#.#QtQtQtQtQtQtQtQtQtQtQtQt",
"QtQtQtQtQtQtQtQtQt.#.#.#.#.#.M.y.z.A.B.C.D.E.F.G.H.I.O.K.#.#.#.#.#QtQtQtQtQtQtQtQtQtQtQtQtQtQtQt",
"QtQtQtQtQtQtQtQtQtQtQtQtQtQt.#.#.#.#.#.#.#.#.#.#.#.#.#.#QtQtQtQtQtQtQtQtQtQtQtQtQtQtQtQtQtQtQtQt",
"QtQtQtQtQtQtQtQtQtQtQtQtQtQtQtQtQtQtQtQtQtQtQtQtQtQtQtQtQtQtQtQtQtQtQtQtQtQtQtQtQtQtQtQtQtQtQtQt"};
